HIERARCHY
ROOT Hips
{
  OFFSET 16.0539 101.952 -177.608
  CHANNELS 6 Xposition Yposition Zposition Zrotation Xrotation Yrotation
  JOINT RightUpLeg
  {
    OFFSET -8.9458 -8.66707 0.101652
    CHANNELS 3 Zrotation Xrotation Yrotation
    JOINT RightLeg
    {
      OFFSET 0 -44.4227 1.3727
      CHANNELS 3 Zrotation Xrotation Yrotation
      JOINT RightFoot
      {
        OFFSET 0.253549 -42.0924 -1.46059
        CHANNELS 3 Zrotation Xrotation Yrotation
        JOINT RightToes
        {
          OFFSET 0.04 -4.41509 8.4991
          CHANNELS 3 Zrotation Xrotation Yrotation
          End Site
          {
            OFFSET -0.08 -0.137448 9.77979
          }
        }
      }
    }
  }
  JOINT Spine
  {
    OFFSET 0 11.8905 0
    CHANNELS 3 Zrotation Xrotation Yrotation
    JOINT Spine1
    {
      OFFSET 0 25.6574 0.127663
      CHANNELS 3 Zrotation Xrotation Yrotation
      JOINT HEad
      {
        OFFSET 0 8.73416 0.011341
        CHANNELS 3 Zrotation Xrotation Yrotation
        End Site
        {
          OFFSET -0.29 12.7742 2.51395
        }
      }
      JOINT LeftShoulder1
      {
        OFFSET 8.99 -0.362252 -0.22
        CHANNELS 3 Zrotation Xrotation Yrotation
        JOINT LeftArm
        {
          OFFSET 10.2827 -0.00338 0.322123
          CHANNELS 3 Zrotation Xrotation Yrotation
          JOINT LeftForeArm
          {
            OFFSET 32.7669 0.099144 -1.42434
            CHANNELS 3 Zrotation Xrotation Yrotation
            JOINT LeftHand
            {
              OFFSET 27.5643 0.085362 1.02216
              CHANNELS 3 Zrotation Xrotation Yrotation
              End Site
              {
                OFFSET 16.7443 -0.6 1.50291
              }
            }
          }
        }
      }
      JOINT RightShoulder
      {
        OFFSET -8.99 -0.362252 -0.22
        CHANNELS 3 Zrotation Xrotation Yrotation
        JOINT RightArm
        {
          OFFSET -10.2827 -0.00338 0.322123
          CHANNELS 3 Zrotation Xrotation Yrotation
          JOINT RightForeArm
          {
            OFFSET -32.8971 0.099144 -1.42434
            CHANNELS 3 Zrotation Xrotation Yrotation
            JOINT RightHand
            {
              OFFSET -27.4921 0.085362 1.02216
              CHANNELS 3 Zrotation Xrotation Yrotation
              End Site
              {
                OFFSET -16.6312 -0.6 1.50291
              }
            }
          }
        }
      }
    }
  }
  JOINT LeftUpLeg
  {
    OFFSET 8.9458 -8.66707 0.101652
    CHANNELS 3 Zrotation Xrotation Yrotation
    JOINT LeftLeg
    {
      OFFSET 0 -44.4227 1.3727
      CHANNELS 3 Zrotation Xrotation Yrotation
      JOINT LeftFoot
      {
        OFFSET -0.253549 -42.0924 -1.46059
        CHANNELS 3 Zrotation Xrotation Yrotation
        JOINT LeftToes
        {
          OFFSET -0.04 -4.41509 8.4991
          CHANNELS 3 Zrotation Xrotation Yrotation
          End Site
          {
            OFFSET 0.08 -0.047448 9.77979
          }
        }
      }
    }
  }
}
MOTION
Frames:	7
Frame Time:	0.0166667
18.5618 100.116 -20.2774 -2.63477 -2.50152 1.14986 9.19202 -16.744 -2.993 -6.0858 20.1765 -6.61108 -12.1059 -2.15339 -0.045824 20.3188 10.9003 -15.8807 -0.357813 2.65331 -0.792197 -0.012459 -6.08902 -0.788122 10.6717 18.5734 -11.8822 1.2424e-016 0 -4.96962e-017 -80.7783 -36.5991 2.76169 -18.1377 17.6356 -34.1208 0.368473 9.90896 -0.00117926 5.99135 -0.034829 -3.75724 71.5189 -34.9882 -5.02685 21.537 14.2554 11.8451 -0.369625 9.91382 0.00119887 5.17106 7.80213 12.272 -2.59049 34.8266 2.76333 2.22353 7.71077 -0.191036 7.33643 -1.3201 2.31481 
18.157 100.07 -18.6048 -3.22636 -2.61459 1.27839 10.0987 -16.0143 -3.92783 -6.44206 21.0404 -5.9778 -12.1292 -3.50878 -0.19544 20.673 10.8779 -16.0516 0.372277 2.86349 -0.830913 0.469521 -6.05993 -0.777128 10.3737 18.4781 -11.7352 3.35449e-016 1.59028e-015 9.93923e-017 -79.632 -37.496 4.652 -18.2392 17.6032 -33.7339 0.368473 9.90896 -0.00117926 5.87756 -0.0448364 -3.83226 71.7338 -35.1802 -4.76139 21.2756 14.2033 11.7289 -0.369625 9.91382 0.00119887 6.78405 6.53198 11.6059 -2.8351 38.4054 1.94579 1.93365 10.9289 -0.222811 7.80235 -0.876398 2.19417 
17.7659 99.9324 -17.0563 -3.79826 -2.66213 1.61398 10.956 -15.5278 -3.83995 -6.51223 22.1849 -6.61949 -11.8557 -4.96476 -0.360042 20.538 10.8907 -15.9896 1.25979 3.11418 -0.97307 0.79024 -5.89559 -0.771988 10.2707 18.1688 -11.5667 -3.10601e-016 7.95139e-016 3.72721e-017 -78.4961 -38.4118 6.28852 -18.2795 17.5674 -33.4223 0.368473 9.90896 -0.00117926 5.86472 -0.0577729 -3.92723 71.9496 -35.2053 -4.54831 21.1433 14.2508 12.0557 -0.369625 9.91382 0.00119887 8.26955 4.58631 10.8247 -2.98942 42.8858 0.54424 1.86643 13.5152 -0.262582 6.60889 -0.55699 1.74853 
17.408 99.7809 -15.579 -4.30307 -2.67461 2.02055 11.6671 -15.0878 -3.60725 -6.42109 23.2566 -7.52839 -11.5455 -6.34555 -0.515795 20.4025 10.8163 -15.8522 2.12704 3.34531 -1.13086 1.03485 -5.62551 -0.764705 10.2338 17.648 -11.4211 -5.0628e-016 0 -2.48481e-017 -77.4421 -39.3842 7.77299 -18.2504 17.5241 -33.1829 0.368473 9.90896 -0.00117926 5.85535 -0.0671782 -3.99675 72.2317 -35.0737 -4.19804 21.0856 14.341 12.5538 -0.369625 9.91382 0.00119887 9.53919 2.21903 9.96066 -2.85385 47.6168 -0.610251 2.02347 15.3349 -0.316087 4.68017 -0.286534 1.16518 
17.1127 99.6836 -14.1224 -4.67747 -2.65459 2.39651 12.1283 -14.597 -4.06219 -6.35748 24.0585 -7.72975 -11.382 -7.55788 -0.644635 20.6154 10.6357 -15.8141 2.75916 3.50073 -1.21825 1.29774 -5.31158 -0.74903 10.1339 16.8748 -11.3476 -2.17421e-016 -7.95139e-016 -1.98785e-016 -76.5731 -40.464 9.20294 -18.1324 17.4785 -33.0702 0.368473 9.90896 -0.00117926 5.7493 -0.0675756 -4.00343 72.5883 -34.776 -3.58573 21.0897 14.4374 13.0292 -0.369625 9.91382 0.00119887 10.4712 -0.403072 9.07744 -2.73712 52.1437 -0.0484118 2.41948 15.8788 -0.393734 2.66908 0.0957877 0.539359 
16.862 99.6129 -12.7 -4.95501 -2.62597 2.73473 12.4501 -14.038 -4.62837 -6.27239 24.6497 -7.78083 -11.3473 -8.55848 -0.752419 20.9557 10.2359 -15.6513 3.26553 3.58045 -1.26917 1.52047 -4.90159 -0.727703 10.0378 15.9839 -11.3214 0 0 -9.93923e-017 -75.7981 -41.5813 10.5554 -17.9612 17.4284 -33.021 0.368473 9.90896 -0.00117926 5.62106 -0.0580747 -3.93654 73.0209 -34.3594 -2.72434 21.1139 14.5314 13.4704 -0.369625 9.91382 0.00119887 11.1153 -3.17596 8.19122 -2.9599 56.2876 1.29724 2.99186 15.5858 -0.479122 0.59815 0.285424 -0.00277015 
16.6509 99.5611 -11.3101 -5.14861 -2.61888 3.01369 12.6899 -13.3472 -5.02376 -6.156 24.9878 -7.92658 -11.5437 -9.22048 -0.836284 21.3287 9.36244 -15.0864 3.68566 3.5439 -1.2863 1.67309 -4.33146 -0.700554 9.98752 15.086 -11.3635 5.51738e-033 7.95139e-016 -3.97569e-016 -75.0859 -42.6588 11.7992 -17.7611 17.3717 -32.9908 0.368473 9.90896 -0.00117926 5.55264 -0.0355985 -3.77274 73.4663 -33.8513 -1.58388 21.1412 14.6078 13.8035 -0.369625 9.91382 0.00119887 11.5014 -5.94974 7.30405 -3.36509 59.7139 2.52199 3.78149 14.5662 -0.569362 -1.42672 -0.115617 -0.261317 
